<svg xmlns="http://www.w3.org/2000/svg" viewBox="0 0 64 64">
  <rect width="64" height="64" rx="10" fill="#4a6b5a"/>
  <g fill="#f5f0e8">
    <!-- sole: wider ball, narrower heel, flatter top -->
    <path d="M21.5 24
             C 21 30, 19.5 36, 21 42
             C 22.5 49, 27 53, 32 53
             C 37 53, 41.5 49, 43 42
             C 44.5 36, 43 30, 42.5 24
             C 41.5 21, 38 20.5, 32 20.5
             C 26 20.5, 22.5 21, 21.5 24 Z"/>
    <!-- big toe -->
    <ellipse cx="25" cy="16.5" rx="3.3" ry="3.8"/>
    <!-- toes -->
    <circle cx="30.5" cy="14.5" r="2.3"/>
    <circle cx="35"   cy="14.8" r="2.0"/>
    <circle cx="38.8" cy="15.8" r="1.8"/>
    <circle cx="42"   cy="17.4" r="1.6"/>
  </g>
  <!-- reflex point -->
  <circle cx="27" cy="34" r="2.6" fill="#a07c3a"/>
</svg>
